<!-- source: janosh/diagrams · assets/four-vs-of-data/four-vs-of-data.svg · MIT · https://github.com/janosh/diagrams -->
<svg xmlns="http://www.w3.org/2000/svg" xmlns:xlink="http://www.w3.org/1999/xlink" width="411.576" height="315.644" viewBox="0 0 308.682 236.733"><path fill="#ff9" stroke="#000" stroke-width=".5" d="M143.782 32.367a85 85 0 0 0-20.55 2.705l20.613 77.173z"/><path fill="#ffc" stroke="#000" stroke-width=".5" d="M121.798 35.456C85.24 45.595 59.82 78.724 59.489 116.661l84.156.066z"/><path fill="#9f9" stroke="#000" stroke-width=".5" d="M59.488 118.145a85 85 0 0 0 2.706 20.55l77.172-20.613z"/><path fill="#cfc" stroke="#000" stroke-width=".5" d="M62.578 140.129c10.139 36.558 43.267 61.979 81.204 62.31l.067-84.155z"/><path fill="#99f" stroke="#000" stroke-width=".5" d="M145.267 202.439a85 85 0 0 0 20.55-2.705l-20.613-77.173z"/><path fill="#ccf" stroke="#000" stroke-width=".5" d="M167.25 199.349c36.559-10.138 61.98-43.267 62.31-81.204l-84.155-.066z"/><path fill="#ffdb99" stroke="#000" stroke-width=".5" d="M229.561 116.66a85 85 0 0 0-2.706-20.55l-77.172 20.614z"/><path fill="#ffedcc" stroke="#000" stroke-width=".5" d="M226.471 94.677c-10.139-36.558-43.267-61.98-81.204-62.31l-.067 84.155z"/><path fill="none" stroke="#000" stroke-width=".5" d="M242.32 117.403c0-51.008-39.05-92.894-88.886-97.395"/><path stroke="#000" stroke-width=".5" d="m150.242 19.78 4.14 1.866-.958-1.66 1.164-1.522z"/><path fill="none" d="M242.023 95.838h54.998v13.884h-54.998z"/><g transform="matrix(1 0 0 -1 245.023 104.628)"><use xlink:href="#a"/><use xlink:href="#b" x="4.734"/><use xlink:href="#c" x="7.119"/><use xlink:href="#a" x="11.519"/><use xlink:href="#d" x="18.454"/><use xlink:href="#e" x="22.827"/><use xlink:href="#f" x="26.849"/><use xlink:href="#b" x="30.122"/><use xlink:href="#e" x="32.507"/><use xlink:href="#g" x="36.529"/><use xlink:href="#h" x="41.298"/><use xlink:href="#i" x="45.065"/></g><path fill="none" d="M152.205 8h56.882v11.905h-56.882z"/><g transform="matrix(1 0 0 -1 155.205 16.79)"><use xlink:href="#f"/><use xlink:href="#i" x="3.203"/><use xlink:href="#j" x="7.137"/><use xlink:href="#i" x="9.865"/><use xlink:href="#f" x="13.798"/><use xlink:href="#i" x="17.002"/><use xlink:href="#g" x="20.935"/><use xlink:href="#h" x="25.705"/><use xlink:href="#i" x="29.471"/><use xlink:href="#k" x="35.605"/><use xlink:href="#e" x="40.058"/><use xlink:href="#l" x="44.079"/><use xlink:href="#e" x="46.86"/></g><path fill="none" stroke="#000" stroke-width=".5" d="M144.525 19.608c-51.008 0-92.895 39.05-97.395 88.885"/><path stroke="#000" stroke-width=".5" d="m46.901 111.686 1.867-4.14-1.66.958-1.523-1.164z"/><path fill="none" d="M104.178 12.073h32.666v7.832h-32.666z"/><g transform="matrix(1 0 0 -1 104.178 17.863)"><use xlink:href="#m"/><use xlink:href="#b" x="4.506"/><use xlink:href="#n" x="6.89"/><use xlink:href="#o" x="9.214"/><use xlink:href="#p" x="13.649"/><use xlink:href="#q" x="17.987"/><use xlink:href="#l" x="22.519"/><use xlink:href="#i" x="25.3"/><use xlink:href="#r" x="29.234"/></g><path fill="none" d="M8 95.89h39.026v13.832H8z"/><g transform="matrix(1 0 0 -1 11 104.68)"><use xlink:href="#l"/><use xlink:href="#i" x="2.781"/><use xlink:href="#f" x="6.714"/><use xlink:href="#e" x="9.988"/><use xlink:href="#p" x="14.01"/><use xlink:href="#q" x="18.348"/><use xlink:href="#l" x="22.88"/><use xlink:href="#i" x="25.661"/><use xlink:href="#r" x="29.594"/></g><path fill="none" stroke="#000" stroke-width=".5" d="M46.73 117.403c0 51.007 39.05 92.894 88.885 97.395"/><path stroke="#000" stroke-width=".5" d="m138.807 215.026-4.14-1.866.958 1.66-1.164 1.522z"/><path fill="none" d="M21.86 119.144h25.166v11.879H21.86z"/><g transform="matrix(1 0 0 -1 24.86 127.935)"><use xlink:href="#r"/><use xlink:href="#l" x="3.432"/><use xlink:href="#e" x="6.213"/><use xlink:href="#l" x="10.234"/><use xlink:href="#b" x="13.015"/><use xlink:href="#h" x="15.4"/></g><path fill="none" d="M99.965 214.901h36.879v13.832h-36.88z"/><g transform="matrix(1 0 0 -1 102.965 223.691)"><use xlink:href="#k"/><use xlink:href="#q" x="4.453"/><use xlink:href="#g" x="8.985"/><use xlink:href="#e" x="13.754"/><use xlink:href="#s" x="17.776"/><use xlink:href="#b" x="24.728"/><use xlink:href="#h" x="27.113"/></g><path fill="none" stroke="#000" stroke-width=".5" d="M144.525 215.198c51.007 0 92.894-39.05 97.394-88.886"/><path stroke="#000" stroke-width=".5" d="m242.148 123.12-1.866 4.14 1.66-.958 1.522 1.164z"/><path fill="none" d="M144.525 215.198h38.56v11.905h-38.56z"/><g transform="matrix(1 0 0 -1 147.525 223.989)"><use xlink:href="#h"/><use xlink:href="#n" x="3.766"/><use xlink:href="#t" x="6.09"/><use xlink:href="#r" x="10.762"/><use xlink:href="#l" x="14.194"/><use xlink:href="#i" x="16.975"/><use xlink:href="#f" x="20.909"/><use xlink:href="#i" x="24.112"/><use xlink:href="#k" x="28.107"/></g><path fill="none" d="M242.023 125.083h58.659v13.885h-58.66z"/><g transform="matrix(1 0 0 -1 245.023 133.874)"><use xlink:href="#a"/><use xlink:href="#i" x="4.734"/><use xlink:href="#l" x="8.668"/><use xlink:href="#i" x="11.449"/><use xlink:href="#f" x="15.382"/><use xlink:href="#o" x="18.586"/><use xlink:href="#c" x="23.021"/><use xlink:href="#i" x="27.421"/><use xlink:href="#g" x="31.354"/><use xlink:href="#i" x="36.124"/><use xlink:href="#o" x="40.119"/><use xlink:href="#t" x="44.554"/><use xlink:href="#r" x="49.227"/></g><path fill="none" d="M137.865 63.197v7.238zM87.71 81.447h32.67v9.79H87.71z"/><g transform="matrix(1 0 0 -1 87.71 88.685)"><use xlink:href="#u"/><use xlink:href="#v" x="6.512"/><use xlink:href="#w" x="11.539"/><use xlink:href="#x" x="15.631"/><use xlink:href="#y" x="18.612"/><use xlink:href="#z" x="23.529"/><use xlink:href="#A" x="27.005"/></g><path fill="none" d="M93.937 120.444v7.238zm1.244 32.544h36.564v9.79H95.181z"/><g transform="matrix(1 0 0 -1 95.181 160.226)"><use xlink:href="#u"/><use xlink:href="#y" x="6.292"/><use xlink:href="#B" x="11.209"/><use xlink:href="#C" x="14.113"/><use xlink:href="#D" x="19.734"/><use xlink:href="#x" x="24.442"/><use xlink:href="#z" x="27.423"/><use xlink:href="#A" x="30.899"/></g><path fill="none" d="M151.184 164.371v7.238zm16.726-19.597h34.188v7.38H167.91z"/><g transform="matrix(1 0 0 -1 167.91 152.012)"><use xlink:href="#u"/><use xlink:href="#C" x="6.292"/><use xlink:href="#B" x="11.836"/><use xlink:href="#E" x="14.74"/><use xlink:href="#F" x="20.581"/><use xlink:href="#y" x="29.271"/></g><path fill="none" d="M195.112 107.124v7.238zm-38.105-35.096h37.158v9.79h-37.158z"/><g transform="matrix(1 0 0 -1 157.007 79.266)"><use xlink:href="#u"/><use xlink:href="#y" x="6.292"/><use xlink:href="#w" x="11.209"/><use xlink:href="#v" x="15.301"/><use xlink:href="#D" x="20.328"/><use xlink:href="#x" x="25.036"/><use xlink:href="#z" x="28.017"/><use xlink:href="#A" x="31.493"/></g><defs><symbol id="a" overflow="visible"><path d="M1.47 2.517c0 .185.079.29.15.37.334.325.782.519 1.126.519.176 0 .36-.115.466-.317.088-.176.106-.414.106-.678V1.074c0-.722-.088-.757-.546-.801-.044-.053-.044-.238 0-.29a25 25 0 0 0 1.83 0c.044.052.044.237 0 .29-.492.044-.59.079-.59.8v1.312c0 .484-.034.915-.237 1.179-.15.194-.422.3-.73.3-.431 0-.96-.115-1.496-.714 0-.008-.009-.008-.018-.017-.026-.035-.07-.088-.07.017l.009 1.98c0 .572.035.924.035.924 0 .062-.035.088-.115.088-.22-.088-.88-.21-1.232-.237-.017-.07 0-.211.053-.264h.08c.387-.027.483-.027.483-.722V1.074C.774.344.67.308.158.273.106.22.106.035.158-.017.448-.01.774 0 1.126 0c.335 0 .625-.009.872-.018.052.053.052.238 0 .29-.45.036-.528.071-.528.802Z"/></symbol><symbol id="b" overflow="visible"><path d="M1.593 1.074v1.75c0 .44.035 1.004.035 1.004 0 .035-.044.062-.114.062-.247-.097-.599-.176-1.206-.256a.6.6 0 0 1 .018-.246c.484-.044.572-.097.572-.598V1.074C.898.344.8.317.264.273.211.22.211.035.264-.017.554-.01.898 0 1.25 0s.686-.009.976-.018c.053.053.053.238 0 .29-.536.036-.633.071-.633.802M.792 5.27c0-.229.211-.457.422-.457.247 0 .458.237.458.422 0 .211-.185.458-.422.458-.212 0-.458-.212-.458-.423"/></symbol><symbol id="c" overflow="visible"><path d="M3.907 3.406c.167 0 .326.158.326.334 0 .185-.167.326-.405.326-.229 0-.651-.15-.88-.45-.106.071-.396.247-.915.247-.783 0-1.505-.528-1.505-1.337 0-.476.211-.748.458-.986C.739 1.329.598.95.598.651c0-.317.176-.563.405-.677C.528-.308.282-.713.282-1.091c0-.766.721-1.003 1.399-1.003 1.188 0 2.473.572 2.473 1.522 0 .282-.132.502-.388.713-.343.281-.959.29-1.284.29-.159 0-.379-.017-.59-.044Q1.694.372 1.628.37c-.255 0-.563.123-.563.501 0 .176.053.361.158.51.211-.123.458-.184.801-.184.774 0 1.487.484 1.487 1.346 0 .414-.123.651-.378.915.061.088.237.212.352.212.061 0 .123-.027.176-.106.035-.07.15-.158.246-.158M1.162-.088c.096-.026.237-.044.352-.044.272 0 .519.026.642.026.44 0 .81-.008 1.065-.15.343-.193.449-.316.449-.545 0-.633-.933-.968-1.725-.968-.317 0-1.056.255-1.056.854 0 .299.017.519.273.827m1.645 2.543c0-.818-.413-.985-.739-.985-.74 0-.818.624-.818 1.188 0 .616.22.932.704.932.554 0 .853-.404.853-1.135"/></symbol><symbol id="d" overflow="visible"><path d="M2.86 3.502c.475-.035.528-.14.343-.59L2.49 1.189c-.14-.343-.184-.343-.325.026L1.53 2.913c-.158.422-.193.528.273.59.053.052.053.237 0 .29-.29-.009-.598-.018-.889-.018-.29 0-.554.009-.818.018-.053-.053-.053-.238 0-.29.466-.053.528-.194.704-.643L1.927.08c.053-.133.106-.186.22-.186.088 0 .15.053.211.203l1.17 2.754c.168.387.265.607.758.651.052.053.052.238 0 .29a12 12 0 0 0-.616-.017c-.29 0-.59.009-.81.018-.053-.053-.053-.238 0-.29"/></symbol><symbol id="e" overflow="visible"><path d="M2.578.422c.053-.272.15-.51.59-.51.334 0 .651.15.836.326-.018.105-.053.184-.15.237-.061-.053-.21-.14-.325-.14-.255 0-.264.343-.264.747v1.294c0 1.25-.687 1.487-1.329 1.487-.722 0-1.452-.475-1.452-.977 0-.21.106-.316.308-.316.255 0 .414.184.414.299a.4.4 0 0 1-.027.158.6.6 0 0 0-.017.176c0 .273.37.37.704.37.299 0 .712-.15.712-1.144 0-.062-.026-.097-.052-.106l-.757-.185C.924 1.928.317 1.461.317.862c0-.721.493-.95 1.109-.95.308 0 .572.07.959.37l.176.14Zm0 1.628V.89c0-.115-.052-.176-.123-.229-.229-.185-.528-.387-.774-.387-.44 0-.634.352-.634.625 0 .396.185.8.836.968Z"/></symbol><symbol id="f" overflow="visible"><path d="M1.549 3.15c-.018.352-.027.581-.07.67-.018.043-.036.07-.106.07-.247-.097-.475-.176-1.083-.256a.6.6 0 0 1 .018-.246C.783 3.344.88 3.3.88 2.79V1.074C.88.344.774.308.229.273.176.22.176.035.229-.017.537-.01.88 0 1.232 0s.757-.009 1.065-.018c.053.053.053.238 0 .29-.616.045-.722.071-.722.802v1.223c0 .229.106.431.211.59.097.14.3.43.405.43.08 0 .159-.017.229-.114.062-.088.167-.202.317-.202.211 0 .413.22.413.44 0 .167-.158.422-.528.422-.413 0-.774-.387-.976-.73-.053-.097-.097-.027-.097.017"/></symbol><symbol id="g" overflow="visible"><path d="M1.62 3.15c-.054-.061-.106-.079-.106 0-.01.238-.027.581-.07.67-.018.043-.036.07-.106.07-.247-.097-.476-.176-1.083-.256a.6.6 0 0 1 .018-.246c.475-.044.572-.088.572-.598V1.074C.845.352.757.317.229.273.176.22.176.035.229-.017.493-.01.845 0 1.197 0s.616-.009.88-.018c.053.053.053.238 0 .29-.449.045-.537.08-.537.802v1.443c0 .185.08.29.15.37.334.325.73.519 1.073.519.176 0 .361-.115.467-.317.088-.176.105-.414.105-.678V1.074c0-.722-.088-.757-.545-.801-.044-.053-.044-.238 0-.29a25 25 0 0 0 1.83 0c.044.052.044.237 0 .29-.493.044-.59.079-.59.8v1.312c0 .484-.035.906-.237 1.179-.15.194-.423.3-.73.3-.432 0-.925-.115-1.444-.714"/></symbol><symbol id="h" overflow="visible"><path d="M3.502.8c-.035.08-.105.115-.184.124-.3-.387-.678-.58-1.056-.58-.643 0-1.18.65-1.18 1.68 0 .968.423 1.549 1.004 1.549.519 0 .59-.308.624-.616.027-.238.15-.317.335-.317s.431.114.431.387c0 .484-.502.836-1.346.836-.872 0-1.804-.783-1.804-2.033C.326.695.959-.088 2.068-.088c.528 0 .994.167 1.434.889"/></symbol><symbol id="i" overflow="visible"><path d="M3.397.818C3.07.484 2.816.343 2.306.343c-.317 0-.687.185-.96.634-.176.29-.281.695-.281 1.205l2.34-.017c.106 0 .168.053.168.15 0 .739-.264 1.53-1.487 1.53-.766 0-1.76-.73-1.76-2.067 0-.493.123-.968.413-1.303.3-.352.713-.563 1.347-.563.668 0 1.144.308 1.496.766-.027.088-.08.132-.185.14M1.09 2.482c.167.994.783 1.073.995 1.073.334 0 .73-.185.73-.924 0-.079-.035-.123-.132-.123Z"/></symbol><symbol id="j" overflow="visible"><path d="M1.54 1.074v2.358h.818c.08 0 .203.035.203.114v.176c0 .036-.027.053-.07.053H1.54v.502c0 1.355.405 1.566.695 1.566.264 0 .405-.105.528-.413.07-.159.167-.282.352-.282.15 0 .361.185.361.36 0 .15-.097.309-.282.45-.228.158-.457.184-.792.184-.739 0-1.557-.642-1.557-2.015v-.352H.396c-.158 0-.202-.105-.202-.176v-.114c0-.044.008-.053.044-.053h.607V1.074C.845.344.704.308.229.273.176.22.176.035.229-.017.537-.01.845 0 1.197 0s.774-.009 1.082-.018c.053.053.053.238 0 .29-.686.036-.739.071-.739.802"/></symbol><symbol id="k" overflow="visible"><path d="M2.94.44c.043.035.122.053.131-.009.027-.211.097-.519.097-.519a.22.22 0 0 1 .167 0c.194.158.502.29 1.039.352.052.053.052.185 0 .238-.564.044-.643.21-.643.642V5.13c0 .572.035.924.035.924 0 .062-.035.088-.114.088-.22-.088-.88-.21-1.232-.237-.018-.07 0-.211.053-.264h.079c.387-.027.484-.027.484-.722V3.793c0-.062-.018-.08-.08-.08-.034 0-.395.15-.686.15-.58 0-.968-.193-1.32-.528-.378-.378-.607-.897-.607-1.549C.343.704.89-.088 1.84-.088c.343 0 .669.176 1.1.528m.096.651c0-.167-.018-.237-.14-.343C2.57.466 2.287.326 2.067.326c-.475 0-.968.519-.968 1.619 0 .633.123.985.255 1.17.273.414.643.44.819.44a.88.88 0 0 0 .712-.317c.124-.14.15-.202.15-.475Z"/></symbol><symbol id="l" overflow="visible"><path d="M.378 3.775C.255 3.775.22 3.67.22 3.6v-.114c0-.044.009-.053.044-.053h.52V.783c0-.625.272-.871.677-.871s.845.194 1.188.58c-.018.089-.07.142-.159.15a1.2 1.2 0 0 0-.72-.246c-.238 0-.29.264-.29.81v2.226h.915c.088 0 .21.035.21.114v.176q-.002.054-.07.053H1.478v.343c0 .572.036.924.036.924 0 .053-.027.08-.07.08a.6.6 0 0 1-.194-.08 1.1 1.1 0 0 0-.3-.123c-.105-.035-.193-.061-.193-.123 0-.106.026-.044.026-1.02Z"/></symbol><symbol id="m" overflow="visible"><path d="M.757 1.074C.757.344.66.308.167.273.114.22.114.035.167-.017.457-.01.757 0 1.11 0c.308 0 .598-.009.8-.018.053.053.053.238 0 .29-.36.036-.457.071-.457.802v.765a1.8 1.8 0 0 0 .378-.044c.097-.07.176-.15.282-.29l.642-.863c.256-.343.361-.51.37-.616 0-.026.009-.044.035-.044a11 11 0 0 0 1.267 0c.053.053.053.238 0 .29-.299.036-.519.071-.756.37L2.508 2.103c-.035.044-.062.08-.062.123 0 .036 0 .053.036.088l.774.801c.264.282.572.352.924.387.053.053.053.238 0 .29a17 17 0 0 0-.766-.017c-.334 0-.66.009-.862.018-.053-.053-.053-.238 0-.29.493-.036.282-.344.202-.45-.202-.255-.475-.554-.704-.721a1.6 1.6 0 0 0-.598-.273V5.13c0 .572.035.924.035.924 0 .062-.035.088-.114.088-.22-.088-.88-.21-1.232-.237-.018-.07 0-.211.053-.264h.079c.387-.027.484-.027.484-.722Z"/></symbol><symbol id="n" overflow="visible"><path d="M.836 1.074C.836.344.739.299.202.273.15.22.15.035.202-.017.51-.01.836 0 1.188 0s.686-.009.977-.018c.053.053.053.238 0 .29-.537.027-.634.071-.634.802V5.13c0 .572.035.924.035.924 0 .062-.035.088-.114.088-.22-.088-.88-.21-1.232-.237-.018-.07 0-.211.053-.264.51-.035.563-.062.563-.722Z"/></symbol><symbol id="o" overflow="visible"><path d="M.36 1.804c0-.898.6-1.892 1.85-1.892.563 0 .994.202 1.293.493.396.387.572.941.572 1.478 0 .915-.501 1.98-1.848 1.98-.58 0-1.056-.237-1.381-.616C.528 2.87.36 2.358.36 1.804m1.734 1.751c.757 0 1.224-.686 1.224-1.953C3.318.492 2.746.22 2.332.22c-.915 0-1.214 1.109-1.214 1.786 0 .766.184 1.55.976 1.55"/></symbol><symbol id="p" overflow="visible"><path d="M1.47 3.467c-.053-.053-.088-.035-.088.044v1.62c0 .571.035.923.035.923 0 .062-.035.088-.115.088-.22-.088-.88-.21-1.232-.237-.017-.07 0-.211.053-.264h.08c.387-.027.483-.027.483-.722V.625C.686.282.678.123.651 0 .695-.07.74-.106.845-.106c.053.053.14.132.211.212.088.105.14.105.238.026.202-.167.466-.22.774-.22.898 0 1.945.818 1.945 2.218 0 1.073-.792 1.733-1.558 1.733-.378 0-.713-.15-.985-.396m.061-.273c.229.203.493.282.748.282.537 0 .977-.651.977-1.505 0-1.003-.405-1.76-1.24-1.76-.274 0-.458.194-.634.414v2.2c0 .185.035.273.15.37"/></symbol><symbol id="q" overflow="visible"><path d="M1.795-1.408c.141.246.255.493.361.757a87 87 0 0 0 1.558 3.59c.176.37.299.51.712.563.053.053.053.238 0 .29a12 12 0 0 0-.624-.017c-.264 0-.537.009-.801.018-.053-.053-.053-.238 0-.29.281-.027.563-.08.422-.397l-.871-2.015c-.062-.14-.14-.167-.211.009l-.783 1.83c-.159.37-.203.537.29.572.053.053.053.238 0 .29a38 38 0 0 0-.994-.017c-.3 0-.537.009-.713.018-.053-.053-.053-.238 0-.29.352-.045.466-.124.695-.66L1.83.527c.08-.176.212-.58.124-.827a8 8 0 0 0-.344-.81c-.096-.176-.22-.255-.44-.255-.123 0-.158.026-.255.026-.255 0-.387-.264-.387-.378 0-.185.176-.326.414-.326.184 0 .536.07.853.634"/></symbol><symbol id="r" overflow="visible"><path d="M.422 1.214C.458.784.484.37.484 0c.088.018.176.026.22.026.062 0 .114 0 .176-.017.238-.062.475-.097.8-.097.494 0 1.4.238 1.4 1.109 0 .598-.431.95-1.03 1.17-.528.203-.88.335-.88.819 0 .36.317.563.616.563.194 0 .704-.07.819-.819.053-.052.229-.044.281.01.027.316.044.642.053.932-.273.044-.695.167-1.153.167-.65 0-1.24-.422-1.24-.985 0-.643.29-.916.968-1.197.73-.3.897-.484.897-.863 0-.43-.422-.616-.748-.616-.343 0-.537.115-.625.212-.193.202-.29.59-.343.81-.053.052-.22.043-.273-.01"/></symbol><symbol id="s" overflow="visible"><path d="M1.496 3.15c-.009.264-.026.581-.07.67-.018.043-.036.07-.106.07-.246-.097-.475-.176-1.082-.256a.6.6 0 0 1 .017-.246C.73 3.344.827 3.3.827 2.79V1.074C.827.352.713.308.23.273.176.22.176.035.229-.017a25 25 0 0 0 1.84 0c.052.052.052.237-.001.29-.449.044-.546.079-.546.8v1.444c0 .185.08.29.15.37.352.343.678.519.95.519.335 0 .581-.212.581-.801V1.074c0-.722-.07-.766-.545-.801-.044-.053-.044-.238 0-.29a23 23 0 0 0 1.76 0c.044.052.044.237 0 .29-.44.035-.52.079-.52.8v1.4c0 .123 0 .246-.008.352.422.466.818.58 1.161.58.335 0 .528-.193.528-.783V1.074c0-.722-.088-.766-.545-.801-.044-.053-.044-.238 0-.29a23 23 0 0 0 1.804 0c.044.052.044.237 0 .29-.484.035-.564.079-.564.8v1.391c0 .783-.132 1.4-.906 1.4-.449 0-.994-.168-1.452-.652-.026-.026-.08-.07-.097.009-.079.36-.422.642-.88.642-.51 0-.968-.299-1.337-.713-.044-.044-.097-.105-.106 0"/></symbol><symbol id="t" overflow="visible"><path d="M1.91-.088c.343 0 .756.176 1.188.528.044.035.123.053.132-.009.026-.22.096-.519.096-.519a.22.22 0 0 1 .168 0c.193.158.501.29 1.038.352.053.053.053.185 0 .238-.563.044-.642.21-.642.642v1.69c0 .264.035.906.035.906 0 .026-.027.053-.07.053a2 2 0 0 0-.309-.018c-.281 0-.598.009-.897.018-.053-.053-.053-.238 0-.29.431-.027.545-.133.545-.713v-1.7c0-.167-.017-.237-.14-.343-.326-.282-.66-.422-.88-.422-.264 0-.704.123-.704.906v1.602c0 .264.035.906.035.906 0 .026-.027.053-.07.053a2 2 0 0 0-.309-.018c-.281 0-.598.009-.897.018-.053-.053-.053-.238 0-.29.422-.036.545-.133.545-.705v-1.69c0-.606.264-1.196 1.136-1.196"/></symbol><symbol id="u" overflow="visible"><path d="M4.928 6.754c.814-.055.814-.352.583-.946L3.773 1.397h-.044l-1.76 4.477c-.253.66-.187.803.561.88.066.066.066.297 0 .363-.44-.011-.935-.022-1.331-.022s-.781.011-1.144.022C-.011 7.051 0 6.82.066 6.754c.605-.055.693-.242.99-1.001L3.223.121c.066-.176.143-.253.253-.253.121 0 .198.099.264.253l2.277 5.61c.209.517.385.946 1.078 1.023.066.066.066.297 0 .363-.33-.011-.715-.022-.968-.022s-.748.011-1.199.022c-.066-.066-.066-.297 0-.363"/></symbol><symbol id="v" overflow="visible"><path d="M3.223.528c.066-.341.187-.638.737-.638.418 0 .814.187 1.045.407-.022.132-.066.231-.187.297-.077-.066-.264-.176-.407-.176-.319 0-.33.429-.33.935V2.97c0 1.562-.858 1.859-1.661 1.859-.902 0-1.815-.594-1.815-1.221 0-.264.132-.396.385-.396.319 0 .517.231.517.374a.5.5 0 0 1-.033.198.8.8 0 0 0-.022.22c0 .341.462.462.88.462.374 0 .891-.187.891-1.43 0-.077-.033-.121-.066-.132l-.946-.231C1.155 2.409.396 1.826.396 1.078c0-.902.616-1.188 1.386-1.188.385 0 .715.088 1.199.462l.22.176Zm0 2.035V1.111c0-.143-.066-.22-.154-.286-.286-.231-.66-.484-.968-.484-.55 0-.792.44-.792.781 0 .495.231 1.001 1.045 1.21Z"/></symbol><symbol id="w" overflow="visible"><path d="M1.936 3.938c-.022.44-.033.726-.088.836-.022.055-.044.088-.132.088-.308-.121-.594-.22-1.353-.319-.022-.066 0-.242.022-.308.594-.055.715-.11.715-.748V1.342C1.1.429.968.385.286.341.22.275.22.044.286-.022.671-.011 1.1 0 1.54 0s.946-.011 1.331-.022c.066.066.066.297 0 .363-.77.055-.902.088-.902 1.001v1.529c0 .286.132.539.264.737.121.176.374.539.506.539a.32.32 0 0 0 .286-.143c.077-.11.209-.253.396-.253.264 0 .517.275.517.55 0 .209-.198.528-.66.528-.517 0-.968-.484-1.221-.913-.066-.121-.121-.033-.121.022"/></symbol><symbol id="x" overflow="visible"><path d="M1.991 1.342v2.189c0 .55.044 1.254.044 1.254 0 .044-.055.077-.143.077-.308-.121-.748-.22-1.507-.319-.022-.066 0-.242.022-.308.605-.055.715-.121.715-.748V1.342C1.122.429 1.001.396.33.341.264.275.264.044.33-.022.693-.011 1.122 0 1.562 0s.858-.011 1.221-.022c.066.066.066.297 0 .363-.671.044-.792.088-.792 1.001M.99 6.589c0-.286.264-.572.528-.572.308 0 .572.297.572.528 0 .264-.231.572-.528.572-.264 0-.572-.264-.572-.528"/></symbol><symbol id="y" overflow="visible"><path d="M4.246 1.023C3.839.605 3.52.429 2.882.429c-.396 0-.858.231-1.199.792-.22.363-.352.869-.352 1.507l2.926-.022c.132 0 .209.066.209.187 0 .924-.33 1.914-1.859 1.914-.957 0-2.2-.913-2.2-2.585 0-.616.154-1.21.517-1.628.374-.44.891-.704 1.683-.704.836 0 1.43.385 1.87.957-.033.11-.099.165-.231.176M1.364 3.102c.209 1.243.979 1.342 1.243 1.342.418 0 .913-.231.913-1.155 0-.099-.044-.154-.165-.154Z"/></symbol><symbol id="z" overflow="visible"><path d="M.473 4.719c-.154 0-.198-.132-.198-.22v-.143c0-.055.011-.066.055-.066h.649V.979c0-.781.341-1.089.847-1.089s1.056.242 1.485.726c-.022.11-.088.176-.198.187a1.5 1.5 0 0 0-.902-.308c-.297 0-.363.33-.363 1.012V4.29h1.144c.11 0 .264.044.264.143v.22c0 .044-.033.066-.088.066h-1.32v.429c0 .715.044 1.155.044 1.155 0 .066-.033.099-.088.099a.7.7 0 0 1-.242-.099 1.4 1.4 0 0 0-.374-.154c-.132-.044-.242-.077-.242-.154 0-.132.033-.055.033-1.276Z"/></symbol><symbol id="A" overflow="visible"><path d="M2.244-1.76c.176.308.319.616.451.946.88 2.123 1.375 3.256 1.947 4.488.22.462.374.638.891.704.066.066.066.297 0 .363-.22-.011-.473-.022-.781-.022-.33 0-.671.011-1.001.022-.066-.066-.066-.297 0-.363.352-.033.704-.099.528-.495L3.19 1.364c-.077-.176-.176-.209-.264.011l-.979 2.288c-.198.462-.253.671.363.715.066.066.066.297 0 .363a48 48 0 0 0-1.243-.022c-.374 0-.671.011-.891.022-.066-.066-.066-.297 0-.363.44-.055.583-.154.869-.825L2.288.66c.099-.22.264-.726.154-1.034a10 10 0 0 0-.429-1.012c-.121-.22-.275-.319-.55-.319-.154 0-.198.033-.319.033-.319 0-.484-.33-.484-.473 0-.231.22-.407.517-.407.231 0 .671.088 1.067.792"/></symbol><symbol id="B" overflow="visible"><path d="M1.045 1.342C1.045.429.924.374.253.341.187.275.187.044.253-.022A42 42 0 0 0 1.485 0c.44 0 .858-.011 1.221-.022.066.066.066.297 0 .363-.671.033-.792.088-.792 1.001v5.071c0 .715.044 1.155.044 1.155 0 .077-.044.11-.143.11-.275-.11-1.1-.264-1.54-.297-.022-.088 0-.264.066-.33.638-.044.704-.077.704-.902Z"/></symbol><symbol id="C" overflow="visible"><path d="M.451 2.255c0-1.122.748-2.365 2.31-2.365.704 0 1.243.253 1.617.616.495.484.715 1.177.715 1.848 0 1.144-.627 2.475-2.31 2.475-.726 0-1.32-.297-1.727-.77C.66 3.586.451 2.948.451 2.255m2.167 2.189c.946 0 1.529-.858 1.529-2.442C4.147.616 3.432.275 2.915.275c-1.144 0-1.518 1.386-1.518 2.233 0 .957.231 1.936 1.221 1.936"/></symbol><symbol id="D" overflow="visible"><path d="M4.378 1.001c-.044.099-.132.143-.231.154C3.773.671 3.3.429 2.827.429c-.803 0-1.474.814-1.474 2.101 0 1.21.528 1.936 1.254 1.936.649 0 .737-.385.781-.77.033-.297.187-.396.418-.396s.539.143.539.484c0 .605-.627 1.045-1.683 1.045-1.089 0-2.255-.979-2.255-2.541C.407.869 1.199-.11 2.585-.11c.66 0 1.243.209 1.793 1.111"/></symbol><symbol id="E" overflow="visible"><path d="M2.387-.11c.429 0 .946.22 1.485.66.055.044.154.066.165-.011.033-.275.121-.649.121-.649a.27.27 0 0 1 .209 0c.242.198.627.363 1.298.44.066.066.066.231 0 .297-.704.055-.803.264-.803.803v2.112c0 .33.044 1.133.044 1.133 0 .033-.033.066-.088.066a3 3 0 0 0-.385-.022c-.352 0-.748.011-1.122.022-.066-.066-.066-.297 0-.363.539-.033.682-.165.682-.891V1.364c0-.209-.022-.297-.176-.429-.407-.352-.825-.528-1.1-.528-.33 0-.88.154-.88 1.133v2.002c0 .33.044 1.133.044 1.133 0 .033-.033.066-.088.066a3 3 0 0 0-.385-.022c-.352 0-.748.011-1.122.022-.066-.066-.066-.297 0-.363.528-.044.682-.165.682-.88V1.386c0-.759.33-1.496 1.419-1.496"/></symbol><symbol id="F" overflow="visible"><path d="M1.87 3.938c-.011.33-.033.726-.088.836-.022.055-.044.088-.132.088-.308-.121-.594-.22-1.353-.319-.022-.066 0-.242.022-.308.594-.055.715-.11.715-.748V1.342C1.034.44.891.385.286.341.22.275.22.044.286-.022a31 31 0 0 0 2.299 0c.066.066.066.297 0 .363-.561.055-.682.099-.682 1.001v1.804c0 .231.099.363.187.462.44.429.847.649 1.188.649.418 0 .726-.264.726-1.001V1.342c0-.902-.088-.957-.682-1.001-.055-.066-.055-.297 0-.363a29 29 0 0 0 2.2 0c.055.066.055.297 0 .363-.55.044-.649.099-.649 1.001v1.749c0 .154 0 .308-.011.44.528.583 1.023.726 1.452.726.418 0 .66-.242.66-.979V1.342c0-.902-.11-.957-.682-1.001-.055-.066-.055-.297 0-.363a29 29 0 0 0 2.255 0c.055.066.055.297 0 .363-.605.044-.704.099-.704 1.001V3.08c0 .979-.165 1.749-1.133 1.749-.561 0-1.243-.209-1.815-.814-.033-.033-.099-.088-.121.011-.099.451-.528.803-1.1.803-.638 0-1.21-.374-1.672-.891-.055-.055-.121-.132-.132 0"/></symbol></defs></svg>