<!-- source: janosh/diagrams · assets/matsubara-contour-5/matsubara-contour-5.svg · MIT · https://github.com/janosh/diagrams -->
<svg xmlns="http://www.w3.org/2000/svg" xmlns:xlink="http://www.w3.org/1999/xlink" width="326.404" height="304.798" viewBox="0 0 244.803 228.598"><path fill="none" stroke="#000" stroke-width=".8" d="M108.228 114.3h28.347m-124.725-.001 1.854-2.126 3.707 4.252 3.707-4.252 3.706 4.252 3.707-4.252 3.707 4.252 3.707-4.252 3.707 4.252 3.707-4.252 3.707 4.252 3.706-4.252 3.707 4.252 3.707-4.252 3.707 4.252 3.707-4.252 3.707 4.252 3.706-4.252 3.707 4.252 3.707-4.252 3.707 4.252 3.707-4.252 3.707 4.252 3.706-4.252 3.707 4.252 3.707-4.252 3.707 4.252 1.853-2.126m28.347 0 1.83-2.126 3.662 4.252 3.661-4.252 3.662 4.252 3.661-4.252 3.662 4.252 3.661-4.252 3.662 4.252 3.661-4.252 3.661 4.252 3.662-4.252 3.661 4.252 3.662-4.252 3.661 4.252 3.661-4.252 3.662 4.252 3.661-4.252 3.662 4.252 3.661-4.252 3.662 4.252 3.661-4.252 3.661 4.252 3.662-4.252 3.661 4.252 1.83-2.126m.001.001h8.073"/><path stroke="#000" stroke-width=".8" d="m234.648 114.299-2.834-1.063.708 1.063-.708 1.063z"/><path fill="none" d="M199.72 99.915h36.068V114.3h-36.069z"/><g transform="matrix(1 0 0 -1 201.72 109.428)"><use xlink:href="#a"/><use xlink:href="#b" x="8.096"/></g><use xlink:href="#c" transform="matrix(1 0 0 -1 214.7 109.428)"/><use xlink:href="#d" transform="matrix(1 0 0 -1 218.978 109.428)"/><use xlink:href="#e" transform="matrix(1 0 0 -1 224.511 112.145)"/><use xlink:href="#f" transform="matrix(1 0 0 -1 229.509 109.428)"/><path fill="none" stroke="#000" d="M122.402 219.181V12.967"/><path stroke="#000" d="m122.402 10.841-1.063 2.835 1.063-.709 1.063.709z"/><path fill="none" d="M82.18 15.71h40.222v10.384H82.179z"/><g transform="matrix(1 0 0 -1 82.18 23.223)"><use xlink:href="#g"/><use xlink:href="#h" x="3.971"/></g><use xlink:href="#c" transform="matrix(1 0 0 -1 95.313 23.223)"/><use xlink:href="#d" transform="matrix(1 0 0 -1 99.592 23.223)"/><use xlink:href="#e" transform="matrix(1 0 0 -1 105.125 25.94)"/><use xlink:href="#f" transform="matrix(1 0 0 -1 110.123 23.223)"/><path stroke="#000" d="M122.401 198.488a.85.85 0 1 0 .002 1.702.85.85 0 0 0-.001-1.702Z"/><path fill="none" d="M122.402 194.164h28.141v10.349h-28.141z"/><use xlink:href="#i" transform="matrix(1 0 0 -1 132.402 201.677)"/><use xlink:href="#j" transform="matrix(1 0 0 -1 136.197 201.677)"/><g transform="matrix(1 0 0 -1 143.039 204.394)"><use xlink:href="#k"/><use xlink:href="#l" x="4.193"/></g><path stroke="#000" d="M122.401 170.142a.85.85 0 1 0 .002 1.702.85.85 0 0 0-.001-1.702Z"/><path fill="none" d="M122.402 165.877h28.141v10.23h-28.141z"/><use xlink:href="#i" transform="matrix(1 0 0 -1 132.402 173.39)"/><use xlink:href="#j" transform="matrix(1 0 0 -1 136.197 173.39)"/><g transform="matrix(1 0 0 -1 143.039 176.107)"><use xlink:href="#k"/><use xlink:href="#m" x="4.193"/></g><path stroke="#000" d="M122.401 141.795a.85.85 0 1 0 .002 1.702.85.85 0 0 0-.001-1.702Z"/><path fill="none" d="M122.402 137.53h28.141v10.23h-28.141z"/><use xlink:href="#i" transform="matrix(1 0 0 -1 132.402 145.044)"/><use xlink:href="#j" transform="matrix(1 0 0 -1 136.197 145.044)"/><g transform="matrix(1 0 0 -1 143.039 147.76)"><use xlink:href="#k"/><use xlink:href="#n" x="4.193"/></g><path stroke="#000" d="M122.401 85.102a.85.85 0 1 0 .002 1.702.85.85 0 0 0-.001-1.702Z"/><path fill="none" d="M122.402 80.838h24.32v10.23h-24.32z"/><use xlink:href="#i" transform="matrix(1 0 0 -1 132.402 88.35)"/><use xlink:href="#j" transform="matrix(1 0 0 -1 136.197 88.35)"/><use xlink:href="#o" transform="matrix(1 0 0 -1 143.039 91.068)"/><path stroke="#000" d="M122.401 56.756a.85.85 0 1 0 .002 1.702.85.85 0 0 0-.001-1.702Z"/><path fill="none" d="M122.402 52.491h24.32v10.23h-24.32z"/><use xlink:href="#i" transform="matrix(1 0 0 -1 132.402 60.004)"/><use xlink:href="#j" transform="matrix(1 0 0 -1 136.197 60.004)"/><use xlink:href="#p" transform="matrix(1 0 0 -1 143.039 62.721)"/><path stroke="#000" d="M122.401 28.41a.85.85 0 1 0 .002 1.701.85.85 0 0 0-.001-1.702Z"/><path fill="none" d="M122.402 24.09h24.32v10.34h-24.32z"/><use xlink:href="#i" transform="matrix(1 0 0 -1 132.402 31.604)"/><use xlink:href="#j" transform="matrix(1 0 0 -1 136.197 31.604)"/><use xlink:href="#q" transform="matrix(1 0 0 -1 143.039 34.32)"/><path stroke="#000" d="M122.401 113.449a.85.85 0 1 0 .002 1.702.85.85 0 0 0-.001-1.702Z"/><path fill="none" d="M113.287 114.3h9.115v11.347h-9.115z"/><use xlink:href="#r" transform="matrix(1 0 0 -1 115.287 123.537)"/><path fill="none" stroke="#005dae" stroke-width=".8" d="M129.488 8v212.598"/><path fill="#005dae" stroke="#005dae" stroke-width=".8" d="m129.488 166.31 1.063-2.835-1.063.709-1.063-.709zm0-53.15 1.063-2.835-1.063.709-1.063-.709zm0-53.15 1.063-2.834-1.063.708-1.063-.708z"/><path fill="none" stroke="#005dae" stroke-width=".8" d="M129.488 220.598c58.708 0 106.3-47.591 106.3-106.299C235.788 55.592 188.196 8 129.488 8"/><path fill="#005dae" stroke="#005dae" stroke-width=".8" d="m205.449 39.95 1.22 2.77.265-1.25 1.256-.235zm30.325 75.488-1.096 2.822 1.07-.696 1.055.721zm-31.936 74.822-2.77 1.22 1.249.265.235 1.256z"/><path fill="none" stroke="#005dae" stroke-width=".8" d="M115.315 220.598V8"/><path fill="#005dae" stroke="#005dae" stroke-width=".8" d="m115.315 62.289-1.063 2.834 1.063-.708 1.063.708zm0 53.149-1.063 2.835 1.063-.709 1.063.71zm0 53.15-1.063 2.835 1.063-.709 1.063.709z"/><path fill="none" stroke="#005dae" stroke-width=".8" d="M115.316 8C56.607 8 9.015 55.592 9.015 114.3s47.592 106.298 106.3 106.298"/><path fill="#005dae" stroke="#005dae" stroke-width=".8" d="m39.354 188.649-1.22-2.77-.265 1.249-1.256.235zM9.03 113.16l1.096-2.822-1.071.696-1.055-.72zm31.935-74.822 2.771-1.22-1.25-.265-.235-1.255z"/><path fill="none" d="M129.488 202.368h19.983v18.23h-19.983z"/><use xlink:href="#s" fill="#005dae" transform="matrix(1 0 0 -1 133.488 213.881)"/><use xlink:href="#t" fill="#005dae" transform="matrix(1 0 0 -1 140.473 216.598)"/><path fill="none" d="M95.333 202.368h19.982v18.23H95.333z"/><use xlink:href="#s" fill="#005dae" transform="matrix(1 0 0 -1 99.333 213.881)"/><use xlink:href="#u" fill="#005dae" transform="matrix(1 0 0 -1 106.318 216.598)"/><path stroke="#000" d="M172.008 91.622a1.418 1.418 0 0 0 0 2.835 1.418 1.418 0 0 0 0-2.835Z"/><path fill="none" d="M172.008 87.283h12.712v11.513h-12.712z"/><use xlink:href="#v" transform="matrix(1 0 0 -1 174.008 96.796)"/><path stroke="#000" d="M72.795 134.142a1.418 1.418 0 0 0 0 2.834 1.418 1.418 0 0 0 0-2.834Z"/><path fill="none" d="M51.525 129.803h21.27v11.513h-21.27z"/><use xlink:href="#w" transform="matrix(1 0 0 -1 53.525 139.316)"/><use xlink:href="#v" transform="matrix(1 0 0 -1 62.083 139.316)"/><defs><symbol id="a" overflow="visible"><path d="M6.721 5.511c0 .627-.341 1.133-1.012 1.518a3.73 3.73 0 0 1-1.87.484H.385v-.429h.308c.385 0 .616-.033.693-.088s.121-.176.121-.374V.891c0-.198-.044-.33-.121-.385S1.078.418.693.418H.385v-.429c.297.033.836.044 1.628.044.803 0 1.342-.011 1.639-.044v.429h-.308c-.385 0-.616.033-.693.088S2.53.693 2.53.891v2.706h1.21c.704 0 1.221-.418 1.342-1.012.022-.121.033-.385.033-.77 0-.297.011-.517.022-.649.066-.924.869-1.408 1.837-1.408.418 0 .715.176.88.517q.198.38.198.726c0 .143-.066.22-.187.22-.099 0-.165-.066-.176-.209-.055-.616-.286-.924-.671-.924s-.517.363-.583.682c-.066.374-.11.66-.143.847l-.143.869c-.165.572-.572.99-1.221 1.243.836.242 1.793.836 1.793 1.782M5.17 6.6c.231-.209.352-.572.352-1.089 0-.418-.11-.77-.319-1.067-.253-.341-.748-.517-1.507-.517H2.53v2.772q0 .346.198.363c.077.011.286.022.638.022.869 0 1.32-.033 1.804-.484"/></symbol><symbol id="b" overflow="visible"><path d="M4.565 2.761c0 1.265-.737 2.167-1.969 2.167-.66 0-1.21-.253-1.661-.77C.517 3.674.308 3.091.308 2.42c0-.693.231-1.276.693-1.782a2.23 2.23 0 0 1 1.716-.759c.627 0 1.111.22 1.441.649.275.363.407.627.407.803 0 .11-.066.165-.187.165-.088 0-.143-.055-.176-.176Q3.839.231 2.783.231c-.495 0-.88.231-1.177.704-.209.341-.308.858-.319 1.562h2.97c.242 0 .308.022.308.264m-.979 1.078c.121-.363.176-.715.176-1.034H1.298c.033.726.22 1.221.55 1.474.275.22.517.33.748.33.495 0 .825-.253.99-.77"/></symbol><symbol id="c" overflow="visible"><path d="M3.498-2.728c.099 0 .154.055.154.154 0 .033-.022.077-.055.121-.572.44-1.034 1.166-1.375 2.167a8 8 0 0 0-.451 2.574v.924c0 .847.154 1.705.451 2.574.341 1.001.803 1.727 1.375 2.167a.18.18 0 0 1 .055.121c0 .099-.055.154-.154.154a.2.2 0 0 1-.077-.033c-.66-.506-1.21-1.254-1.661-2.255-.429-.957-.649-1.859-.649-2.728v-.924c0-.869.22-1.771.649-2.728.451-1.001 1.001-1.749 1.661-2.255a.2.2 0 0 1 .077-.033"/></symbol><symbol id="d" overflow="visible"><path d="M3.905 4.862c-.484 0-.946-.253-1.397-.759-.121.506-.462.759-1.001.759-.451 0-.781-.363-1.012-1.078-.11-.363-.165-.572-.165-.638 0-.099.055-.154.176-.154.055 0 .088.011.121.033a.8.8 0 0 1 .099.253c.198.836.451 1.254.748 1.254.198 0 .297-.154.297-.451 0-.165-.022-.352-.077-.55L.484-1.298c-.099-.363-.11-.407-.539-.407-.198 0-.297-.088-.297-.253 0-.121.066-.176.187-.176.165 0 .737.033.902.033.209 0 .869-.033 1.078-.033.165 0 .242.088.242.264 0 .11-.099.165-.308.165-.198 0-.495-.011-.495.121 0 .143.451 1.87.495 2.057.22-.407.55-.616.99-.616.715 0 1.342.363 1.892 1.1.506.671.759 1.386.759 2.123 0 .957-.572 1.782-1.485 1.782m-.033-.33c.429 0 .649-.33.649-.979 0-.297-.066-.693-.187-1.188-.253-.957-.572-1.584-.957-1.903-.231-.187-.44-.286-.649-.286-.319 0-.539.143-.66.44-.099.231-.154.396-.154.484l.561 2.299c.055.242.253.495.561.748s.583.385.836.385"/></symbol><symbol id="e" overflow="visible"><path d="M3.973 2.456q-.002 1.305-.454 1.987c-.247.385-.74.67-1.332.67q-.372.002-.662-.123C.678 4.635.4 3.65.4 2.456c0-.261.016-.508.039-.747.13-1.008.6-1.863 1.748-1.863.246 0 .47.039.662.123.847.347 1.124 1.31 1.124 2.487m-.878 1.71c.085-.285.131-.817.131-1.61 0-.754-.03-1.285-.1-1.601C3.034.5 2.71.123 2.186.123a.94.94 0 0 0-.561.193c-.239.177-.385.523-.447 1.055-.023.177-.03.57-.03 1.185 0 .747.038 1.263.115 1.54q.196.74.924.74c.462 0 .8-.3.908-.67"/></symbol><symbol id="f" overflow="visible"><path d="M.858-2.695c.66.506 1.21 1.254 1.661 2.255.429.957.649 1.859.649 2.728v.924c0 .869-.22 1.771-.649 2.728C2.068 6.941 1.518 7.689.858 8.195a.2.2 0 0 1-.077.033c-.099 0-.154-.055-.154-.154 0-.044.022-.088.055-.121.572-.44 1.034-1.166 1.375-2.167a8 8 0 0 0 .451-2.574v-.924c0-.847-.154-1.705-.451-2.574-.341-1.001-.803-1.727-1.375-2.167-.033-.044-.055-.088-.055-.121 0-.099.055-.154.154-.154.011 0 .044.011.077.033"/></symbol><symbol id="g" overflow="visible"><path d="M1.98.033Q3.25.033 3.663 0v.429h-.319c-.396 0-.638.022-.715.077s-.121.187-.121.385v5.731c0 .198.044.319.121.374s.319.088.715.088h.319v.429c-.275-.022-.836-.033-1.672-.033q-1.27 0-1.683.033v-.429h.319c.396 0 .638-.033.715-.088s.121-.176.121-.374V.891c0-.198-.044-.33-.121-.385S1.023.429.627.429H.308V0c.275.022.836.033 1.672.033"/></symbol><symbol id="h" overflow="visible"><path d="M3.465 4.543c.506 0 .759-.385.759-1.166V.869c0-.209-.033-.341-.11-.385s-.33-.066-.737-.066V0l1.276.033L5.918 0v.418q-.61 0-.726.066c-.077.044-.121.176-.121.385v1.98c0 .88.572 1.694 1.419 1.694.517 0 .77-.385.77-1.166V.869c0-.209-.044-.341-.121-.385s-.33-.066-.737-.066V0l1.276.033L8.943 0v.418c-.352 0-.583.011-.693.044s-.154.11-.154.242v2.057c0 .517-.022.88-.055 1.089-.11.671-.605 1.012-1.474 1.012-.693 0-1.21-.319-1.562-.968-.154.649-.638.968-1.463.968-.693 0-1.221-.33-1.573-.99v.99L.352 4.741v-.418q.594 0 .726-.099c.088-.066.121-.209.121-.462V.869c0-.209-.044-.341-.121-.385Q.963.418.352.418V0l1.276.033L2.893 0v.418c-.407 0-.66.022-.737.066s-.121.176-.121.385v1.98c0 .891.583 1.694 1.43 1.694"/></symbol><symbol id="i" overflow="visible"><path d="M3.124 6.831c0 .297-.143.44-.44.44-.308 0-.616-.308-.616-.616 0-.297.154-.44.451-.44.308 0 .605.308.605.616m-.275-5.313C2.607.649 2.255.209 1.804.209c-.143 0-.22.099-.22.308 0 .187.319 1.133.968 2.849q.132.38.132.594c0 .539-.374.935-.913.935-.473 0-.847-.275-1.122-.836q-.33-.676-.33-.891c0-.099.055-.143.176-.143.143 0 .165.066.209.22.253.88.594 1.32 1.034 1.32.143 0 .22-.099.22-.308 0-.154-.033-.33-.11-.539-.253-.693-.517-1.43-.737-2.013C.946 1.265.858.968.858.814c0-.539.396-.935.924-.935q.71 0 1.122.825c.209.429.319.726.319.891 0 .099-.055.154-.176.154-.033 0-.198-.099-.198-.231"/></symbol><symbol id="j" overflow="visible"><path d="M5.555 4.301a.4.4 0 0 1 .132-.308c.275-.231.407-.539.407-.913 0-.143-.011-.275-.044-.396C5.83 1.848 5.247.748 4.356.748q-.858 0-1.023.924c.143.297.253.605.33.946.033.121.044.22.044.286 0 .22-.088.33-.253.33-.418 0-.528-1.056-.55-1.518-.407-.649-.88-.968-1.441-.968-.605 0-.902.396-.902 1.177 0 .22.033.451.088.693.121.484.44 1.089.957 1.804q.066.083.066.165c0 .143-.077.22-.242.22a.29.29 0 0 1-.22-.11C.671 3.96.143 2.662.143 1.463q0-1.584 1.188-1.584c.627 0 1.166.363 1.639 1.078.154-.715.572-1.078 1.243-1.078.363 0 .704.143 1.012.429.517.484.902 1.254 1.166 2.31.165.671.253 1.144.253 1.441q0 .478-.231.693a.38.38 0 0 1-.275.11c-.286 0-.583-.275-.583-.561"/></symbol><symbol id="k" overflow="visible"><path d="M3.762 1.455H.432q-.13 0-.13-.108 0-.106.13-.107h3.33q.13 0 .13.108c0 .064-.065.107-.13.107"/></symbol><symbol id="l" overflow="visible"><path d="M1.633 1.903c.356.134.69.474.69.932q-.001.348-.334.566a1.2 1.2 0 0 1-.663.189c-.243 0-.453-.065-.641-.189q-.316-.208-.318-.555c0-.178.118-.302.29-.302.173 0 .292.124.292.297q0 .267-.308.285.21.285.663.286.486.001.485-.571a1.24 1.24 0 0 0-.123-.572c-.146-.259-.345-.307-.68-.307Q.89 1.948.89 1.876c0-.081.038-.081.146-.081h.232q.607.001.609-.863c0-.458-.167-.857-.577-.857-.35 0-.61.119-.765.356A.31.31 0 0 1 .862.75a.31.31 0 0 1-.318.318q-.316 0-.318-.33c0-.264.119-.474.356-.641.21-.146.458-.216.733-.216q.458.002.803.302.346.299.345.75c0 .506-.399.856-.83.97"/></symbol><symbol id="m" overflow="visible"><path d="M1.277 3.59a.97.97 0 0 1-.706-.291.93.93 0 0 1-.301-.696c0-.183.134-.318.301-.318.162 0 .297.14.297.302 0 .178-.13.302-.302.302q-.023.001-.038-.005c.103.264.34.496.68.496.441 0 .69-.383.69-.847 0-.36-.184-.749-.55-1.159L.333.232C.264.15.27.156.27 0h2l.156.97h-.177C2.205.695 2.167.54 2.134.49Q2.094.452 1.65.453h-.9l.523.512c.367.345.83.717.986 1.002q.162.284.162.566c0 .636-.496 1.057-1.143 1.057"/></symbol><symbol id="n" overflow="visible"><path d="M1.45 3.59q-.331-.34-.97-.34v-.21q.422 0 .69.13V.441q0-.146-.07-.188Q1.025.211.7.21H.513V0q.202.016.873.016.672 0 .873-.016v.21H2.07q-.333.001-.4.043C1.629.28 1.6.345 1.6.442v2.986c0 .13-.01.162-.15.162"/></symbol><symbol id="o" overflow="visible"><path d="M1.633 3.579c-.232-.226-.577-.34-1.045-.34v-.237c.318 0 .57.049.765.14V.458Q1.354.355 1.33.323 1.291.233.846.232h-.22V0l.959.022L2.549 0v.232h-.22q-.444.001-.491.091a.4.4 0 0 0-.016.135v2.948c0 .146-.022.173-.189.173"/></symbol><symbol id="p" overflow="visible"><path d="M.641 2.285c.173 0 .302.13.302.302q-.001.293-.302.302a.81.81 0 0 0 .739.458c.474 0 .787-.356.787-.83q.001-.387-.28-.75a3 3 0 0 0-.21-.258L.398.243C.329.178.339.162.339 0H2.56l.167 1.013h-.226c-.038-.285-.08-.452-.13-.49C2.346.507 2.179.496 1.86.496H.943a27 27 0 0 0 1.014.857q.362.284.522.501.243.315.243.663.001.501-.394.792-.348.268-.867.27A1.2 1.2 0 0 1 .69 3.32a.89.89 0 0 1-.35-.717c0-.183.134-.318.301-.318"/></symbol><symbol id="q" overflow="visible"><path d="M1.903 1.903c.36.145.706.463.706.921q-.002.366-.383.577-.315.178-.711.178-.397.001-.696-.167-.364-.203-.366-.566.001-.307.302-.307c.167 0 .29.129.29.296q-.001.25-.253.291c.157.167.388.254.706.254.35 0 .55-.21.55-.556a.93.93 0 0 0-.205-.62c-.15-.177-.258-.204-.571-.226-.145-.01-.243.006-.243-.102q.001-.097.157-.097h.285c.464 0 .69-.35.69-.836 0-.474-.215-.835-.668-.835Q.903.107.636.437.921.47.922.755a.306.306 0 0 1-.313.312Q.293 1.068.291.738c0-.274.14-.495.415-.652q.346-.194.798-.194.492 0 .862.275.405.3.404.776c0 .502-.436.846-.867.96"/></symbol><symbol id="r" overflow="visible"><path d="M2.508-.11c.847 0 2.134.858 2.134 3.443 0 1.089-.264 2.024-.748 2.662-.286.385-.748.715-1.342.715C1.463 6.71.429 5.412.429 3.234c0-1.177.363-2.277.968-2.882A1.52 1.52 0 0 1 2.508-.11m.044 6.435a.73.73 0 0 0 .495-.187c.341-.286.638-1.122.638-2.596 0-1.012-.033-1.705-.187-2.266C3.256.374 2.717.275 2.519.275c-1.023 0-1.133 1.881-1.133 2.838 0 2.706.671 3.212 1.166 3.212"/></symbol><symbol id="s" overflow="visible"><path d="M1.628 2.398c0 1.408.616 2.838 1.309 3.63.561.649 1.529 1.298 2.618 1.298 1.144 0 1.705-.869 1.705-2.057 0-.099-.033-.451-.033-.55s.066-.154.209-.154a.4.4 0 0 1 .132.022.7.7 0 0 1 .11.231l.682 2.783c0 .099-.055.154-.165.154-.044 0-.11-.044-.198-.143l-.715-.803c-.429.627-1.034.946-1.815.946-.605 0-1.199-.143-1.804-.418C2.442 6.765 1.551 5.863.979 4.631A4.3 4.3 0 0 1 .55 2.783c0-.88.275-1.595.836-2.167s1.276-.858 2.156-.858c.869 0 1.661.319 2.376.946.297.253.55.561.759.902.297.495.451.836.451 1.045 0 .099-.055.154-.176.154-.099 0-.154-.044-.176-.143-.231-.715-.594-1.287-1.089-1.694C5.06.451 4.4.187 3.718.187c-1.32 0-2.09.891-2.09 2.211"/></symbol><symbol id="t" overflow="visible"><path d="M2.333 5.113c-.331-.324-.824-.485-1.494-.485v-.34c.455 0 .817.07 1.094.201V.654c0-.1-.008-.161-.031-.192q-.058-.129-.693-.13H.893V0l1.37.03L3.644 0v.331h-.317q-.633.002-.7.131a.5.5 0 0 0-.023.192v4.212c0 .208-.031.247-.27.247"/></symbol><symbol id="u" overflow="visible"><path d="M.916 3.265c.247 0 .432.185.432.431 0 .277-.147.424-.432.431.17.362.555.655 1.055.655.678 0 1.124-.509 1.124-1.186 0-.37-.13-.724-.4-1.07q-.196-.265-.3-.37L.57.346C.47.254.485.231.485 0h3.173l.238 1.448h-.323C3.519 1.039 3.457.8 3.388.747 3.35.724 3.111.708 2.657.708h-1.31c.516.455.994.863 1.448 1.225.347.27.593.508.747.716q.347.45.347.947.002.716-.563 1.132-.497.383-1.24.385c-.423 0-.785-.123-1.1-.37-.331-.27-.5-.608-.5-1.024 0-.262.192-.454.43-.454"/></symbol><symbol id="v" overflow="visible"><path d="M2.189 7.216c0-.11.121-.165.352-.165.44 0 .66-.044.66-.143 0-.033-.022-.11-.055-.253L1.716.902c-.055-.242-.165-.385-.33-.44C1.309.44 1.111.429.77.429.528.429.418.407.418.176.418.055.539 0 .77 0h5.643c.264 0 .286.022.374.209l.44.99c.297.682.506 1.188.627 1.529-.022.099-.055.165-.176.165-.077 0-.143-.055-.187-.154-.275-.649-.539-1.144-.803-1.496C6.248.649 5.599.429 4.565.429H2.97c-.11 0-.187 0-.231.011-.066 0-.099.022-.099.055 0 .022.022.099.055.242l.726 2.937h1.045c.517 0 .792-.066.847-.209a.7.7 0 0 0 .033-.242 2 2 0 0 0-.077-.528.4.4 0 0 1-.033-.132c0-.11.066-.165.187-.165.099 0 .165.088.209.253l.616 2.552c0 .11-.055.165-.176.165-.088 0-.154-.077-.187-.231-.11-.429-.253-.704-.44-.836s-.495-.198-.946-.198h-.968l.638 2.563c.088.374.088.385.55.385h1.529q.841 0 1.155-.165.462-.247.462-.99a3.3 3.3 0 0 0-.044-.572c0-.022 0-.055-.011-.099v-.099c0-.121.055-.176.165-.176s.176.099.198.308l.22 1.881c.033.308-.044.341-.341.341H2.563c-.253 0-.374-.011-.374-.264"/></symbol><symbol id="w" overflow="visible"><path d="M7.678 2.97H.88c-.176 0-.264-.077-.264-.22s.088-.22.264-.22h6.798c.176 0 .264.077.264.22 0 .132-.132.22-.264.22"/></symbol></defs></svg>