<!-- source: janosh/diagrams · assets/pie-physics-chemistry-ml/pie-physics-chemistry-ml.svg · MIT · https://github.com/janosh/diagrams -->
<svg xmlns="http://www.w3.org/2000/svg" xmlns:xlink="http://www.w3.org/1999/xlink" width="226.772" height="226.767" viewBox="0 0 170.079 170.076"><path fill="coral" stroke="#fff" stroke-width=".2" d="M84.297 0a85.04 85.04 0 0 0-73.272 126.912l73.339-42.266z"/><path fill="#50c878" stroke="#fff" stroke-width=".2" d="M11.767 128.196a85.04 85.04 0 0 0 146.545 0l-73.273-42.38z"/><path fill="#4a90e2" stroke="#fff" stroke-width=".2" d="M159.054 126.912A85.04 85.04 0 0 0 85.78 0l-.066 84.646z"/><path fill="none" d="M27.828 43.684h26.048v31.68H27.828z"/><use xlink:href="#a" transform="matrix(1 0 0 -1 27.828 72.636)"/><path fill="none" d="M55.977 121.364h58.124v29.392H55.977z"/><use xlink:href="#b" transform="matrix(1 0 0 -1 55.977 150.316)"/><use xlink:href="#c" transform="matrix(1 0 0 -1 83.961 150.316)"/><path fill="none" d="M114.29 45.004h29.875v29.04H114.29z"/><use xlink:href="#d" transform="matrix(1 0 0 -1 114.29 73.956)"/><defs><symbol id="a" overflow="visible"><path d="M21.604 25.652H1.1V24.64c.66 0 1.804-.44 2.992-2.024l7.436-11.704L2.64-.924c-.616-.748-1.056-.836-1.584-.836v-.968H22.22l1.232 7.7-.968.088c-.044-.22-1.408-5.236-4.488-5.236H5.676l8.976 11.968.044.044-7.568 11.968H17.16c2.508 0 3.872-3.564 4.092-4.4l.968.132Z"/></symbol><symbol id="b" overflow="visible"><path d="M15.488 28.952H12.76L1.54.88C1.364.44 1.32.44 1.32.308c0-.264.352-.308.924-.308h23.232c.748 0 .924.088.924.264 0 .088-.044.22-.176.616ZM13.2 24.508h.088L22 1.496H4.268Z"/></symbol><symbol id="c" overflow="visible"><path d="M16.588 28.952c-7.348 0-14.96-5.764-14.96-15.444 0-7.92 5.456-13.948 13.86-13.948 5.192 0 9.284 1.1 12.276 3.652-.484.396-.704.748-.704 1.232v5.104c0 1.54.748 1.98 2.024 2.112.264.264.264 1.32 0 1.584a84 84 0 0 0-3.916-.088c-1.452 0-3.52.044-5.456.088-.264-.264-.264-1.32 0-1.584 2.42-.176 3.608-.352 3.608-2.112V2.816c-1.496-1.408-4.444-1.672-6.82-1.672-6.952 0-10.648 7.436-10.648 13.244 0 7.7 5.016 12.98 10.12 12.98 6.38 0 8.184-3.652 9.328-7.436q.726-.066 1.452.264c-.088 1.848-.308 3.608-1.012 6.776-2.64.44-4.268 1.98-9.152 1.98"/></symbol><symbol id="d" overflow="visible"><path d="M16.808 5.368v5.852c4.356 0 9.284 1.144 9.284 9.592 0 4.004 1.54 4.972 2.64 5.28.352.088.616.176.616.484 0 .44-.44.528-.968.528h-1.276c-2.376 0-4.224-2.684-4.224-6.116 0-5.72-2.376-8.272-6.072-8.316v10.34c0 3.652.748 3.872 3.828 4.004.264.264.264 1.188 0 1.452-2.156-.044-3.476-.088-5.72-.088-2.2 0-3.476.044-5.676.088-.264-.264-.264-1.188 0-1.452 3.08-.132 3.828-.352 3.828-4.004v-10.34c-2.948.044-6.028 2.112-6.028 7.832 0 4.312-2.112 6.6-4.268 6.6H1.408c-.484 0-.88-.044-.88-.528 0-.22.22-.308.572-.396.968-.264 2.728-1.98 2.728-6.38 0-7.568 5.104-8.536 9.24-8.58V5.368c0-3.652-.748-3.872-3.828-4.004-.264-.264-.264-1.188 0-1.452 2.156.044 3.476.088 5.72.088 2.2 0 3.476-.044 5.676-.088.264.264.264 1.188 0 1.452-3.08.132-3.828.352-3.828 4.004"/></symbol></defs></svg>